<?xml version="1.0" encoding="utf-8"?>
<!-- Generator: Adobe Illustrator 19.0.0, SVG Export Plug-In . SVG Version: 6.00 Build 0)  -->
<svg version="1.1" id="Layer_1" xmlns="http://www.w3.org/2000/svg" xmlns:xlink="http://www.w3.org/1999/xlink" x="0px" y="0px"
	 viewBox="-244 245 504.1 504.1" style="enable-background:new -244 245 504.1 504.1;" xml:space="preserve">
<style type="text/css">
	.st0{fill:#E0A185;}
	.st1{fill:#C18B72;}
	.st2{fill:#FFBE9E;}
	.st3{fill:#EFEFEF;}
	.st4{fill:#EFB095;}
	.st5{fill:#DCDCDC;}
	.st6{fill:#D1D1D1;}
	.st7{font-family:'Gidole-Regular';}
	.st8{font-size:71px;}
</style>
<path class="st0" d="M-87.6,311.2l95.7,47.8l95.7-47.8v102.1L8.1,461.1l-95.7-47.8V311.2z"/>
<path class="st1" d="M-87.6,320.8v29.8l95.4,46.7l96-46.9v-29.7L8.1,367.7L-87.6,320.8z"/>
<path class="st0" d="M8.1,461.1V359.1l-89.3-44.7h-6.4v98.9L8.1,461.1z"/>
<path class="st1" d="M-87.6,320.8v29.8l95.4,46.7l0.3-0.2v-29.7v0.2L-87.6,320.8z"/>
<path class="st2" d="M-94,307.9L8.1,257l102.1,50.9v6.7L8.1,365.4L-94,314.7V307.9z"/>
<path class="st3" d="M66.6,273.1c-3.3-6.1-10.5-9.7-19-9.7c-19.3,0-32.9,18-39.5,29.5c-6.7-11.5-20.4-29.3-39.5-29.3
	c-12.3,0-21.1,7.5-21.1,17.7c0,18.2,19.9,30,60,30s61.2-15.1,61.2-29.8C68.7,278.5,68,275.7,66.6,273.1z M-27.3,292.7
	c-4.5-3-6.1-6.4-6.1-8.6c0-2.7,2.6-4.8,6.2-4.8c8.6,0,15.5,11.3,19.3,19.1C-17.9,297.7-23.8,295-27.3,292.7z M43.5,292.7
	c-3.5,2.2-9.4,4.9-19.5,5.7c3.7-7.8,10.5-19.1,19.3-19.1c3.7,0,6.2,2.1,6.2,4.8C49.5,286.3,47.9,289.7,43.5,292.7z"/>
<path class="st4" d="M-94,308L8.1,358L110.1,308v33L7.7,391L-94,341V308z"/>
<path class="st3" d="M46.3,343.6v-3.7L8.1,319.2l-38.3,20.7v3.7l-25.5-11.2v-5.1l62.5-33l1.3,0.6l1.3-0.6l62.5,32.9v5.1L46.3,343.6z
	"/>
<path class="st5" d="M46.3,339.9v101.9l25.5-12.8V327.2L46.3,339.9z"/>
<path class="st6" d="M-55.7,429.2l25.5,12.8V340.1l-25.5-12.9C-55.7,327.2-55.7,429.2-55.7,429.2z"/>
<text transform="matrix(1 0 0 1 -225 523.7259)" class="st2 st7 st8">SURPRENEZ MOI</text>
</svg>
