<?xml version="1.0" encoding="utf-8"?>
<!-- Generator: Adobe Illustrator 19.0.0, SVG Export Plug-In . SVG Version: 6.00 Build 0)  -->
<svg version="1.1" id="Layer_1" xmlns="http://www.w3.org/2000/svg" xmlns:xlink="http://www.w3.org/1999/xlink" x="0px" y="0px"
	 viewBox="-244 245 504.1 504.1" style="enable-background:new -244 245 504.1 504.1;" xml:space="preserve">
<style type="text/css">
	.st0{fill:#E0A185;}
	.st1{fill:#C18B72;}
	.st2{fill:#FFBE9E;}
	.st3{fill:#EFEFEF;}
	.st4{fill:#EFB095;}
	.st5{fill:#DCDCDC;}
	.st6{fill:#D1D1D1;}
</style>
<path class="st0" d="M-228.2,378.9L8.1,497.1l236.3-118.2V631L8.1,749.1L-228.2,631V378.9z"/>
<path class="st1" d="M-228.2,402.5v73.6L7.3,591.6l237.1-115.8v-73.3L8.1,518.3L-228.2,402.5z"/>
<path class="st0" d="M8.1,749.1V497.1l-220.6-110.3h-15.8V631L8.1,749.1z"/>
<path class="st1" d="M-228.2,402.5v73.6L7.3,591.6l0.8-0.4v-73.3v0.4L-228.2,402.5z"/>
<path class="st2" d="M-244,370.6L8.1,245l252.1,125.6v16.5L8.1,512.8L-244,387.6V370.6z"/>
<path class="st3" d="M152.6,284.8c-8.3-15-26-24-46.9-24c-47.7,0-81.1,44.5-97.7,72.9c-16.5-28.4-50.4-72.5-97.7-72.5
	c-30.3,0-52,18.5-52,43.7c0,44.9,49.2,74,148.1,74s151.2-37.4,151.2-73.6C157.7,298.2,156.1,291.1,152.6,284.8z M-79.4,333.2
	c-11-7.5-15-15.8-15-21.3c0-6.7,6.3-11.8,15.4-11.8c21.3,0,38.2,28,47.7,47.3C-56.1,345.4-70.7,338.7-79.4,333.2z M95.5,333.2
	c-8.7,5.5-23.2,12.2-48,14.2c9.1-19.3,26-47.3,47.7-47.3c9.1,0,15.4,5.1,15.4,11.8C110.5,317.5,106.5,325.7,95.5,333.2z"/>
<path class="st4" d="M-244,371L8.1,494.3L260.1,371v81.5L7.3,575.8L-244,452.6V371z"/>
<path class="st3" d="M102.6,458.9v-9.1L8.1,398.6l-94.5,51.2v9.1l-63-27.6v-12.6L4.9,337.2l3.2,1.6l3.2-1.6l154.4,81.1v12.6
	L102.6,458.9z"/>
<path class="st5" d="M102.6,449.8v251.7l63-31.5V418.3L102.6,449.8z"/>
<path class="st6" d="M-149.5,670.4l63,31.5V450.2l-63-31.9C-149.5,418.3-149.5,670.4-149.5,670.4z"/>
</svg>
